<?xml version="1.0" encoding="utf-8"?>
<!-- Generator: Adobe Illustrator 22.0.1, SVG Export Plug-In . SVG Version: 6.00 Build 0)  -->
<svg version="1.1" id="圖層_1" xmlns="http://www.w3.org/2000/svg" xmlns:xlink="http://www.w3.org/1999/xlink" x="0px" y="0px"
	 viewBox="0 0 775.8 409.1" style="enable-background:new 0 0 775.8 409.1;" xml:space="preserve">
<style type="text/css">
	.st0{opacity:0.5;}
	.st1{fill:#A0A0A0;}
	.st2{display:none;fill:#F7F7F7;}
	.st3{fill:#FF595E;}
	.st4{fill:url(#SVGID_1_);}
	.st5{fill:#333333;}
	.st6{fill:none;stroke:#333333;stroke-miterlimit:10;}
	.st7{fill:#FFFFFF;stroke:#333333;stroke-miterlimit:10;}
	.st8{fill:none;stroke:#333333;stroke-width:3;stroke-miterlimit:10;}
	.st9{fill:#FFFFFF;stroke:#333333;stroke-width:3;stroke-miterlimit:10;}
	.st10{fill:none;stroke:#333333;stroke-width:3;stroke-linecap:round;stroke-miterlimit:10;}
	.st11{fill:none;stroke:#333333;stroke-width:3;stroke-linecap:round;stroke-linejoin:round;stroke-miterlimit:10;}
	.st12{fill:#FFFFFF;stroke:#333333;stroke-width:0.5;stroke-miterlimit:10;}
	.st13{fill:#41B782;}
	.st14{fill:#35495E;}
	.st15{fill:#CCCCCC;}
	.st16{fill:none;stroke:#333333;stroke-width:0.5;stroke-miterlimit:10;}
	.st17{fill:#FB9C9A;}
	.st18{opacity:0.8;fill:#F2F2F2;stroke:#8C8C8C;stroke-width:3;stroke-miterlimit:10;}
	.st19{fill:#7AA8BC;}
	.st20{fill:none;stroke:#333333;stroke-width:2;stroke-miterlimit:10;}
	.st21{opacity:0.8;fill:#8C8C8C;}
	.st22{fill:#FFFFFF;}
	.st23{fill:#DFDFDF;}
	.st24{fill:#7A7A7A;}
	.st25{fill:#EFEFEF;}
	.st26{fill:url(#SVGID_4_);}
</style>
<linearGradient id="SVGID_1_" gradientUnits="userSpaceOnUse" x1="670.0543" y1="43.7027" x2="102.7337" y2="367.1284">
	<stop  offset="0" style="stop-color:#DDEBEF"/>
	<stop  offset="1" style="stop-color:#E4EBEF"/>
</linearGradient>
<rect class="st4" width="776" height="409"/>
<path class="st18" d="M734.1,338H432.8c-8.5,0-15.3-6.9-15.3-15.3V150.5c0-8.5,6.9-15.3,15.3-15.3h301.3c8.5,0,15.3,6.9,15.3,15.3
	v172.2C749.4,331.1,742.6,338,734.1,338z"/>
<path class="st21" d="M737.4,135.2h-308c-6.6,0-12,5.4-12,12v0h332v0C749.4,140.5,744.1,135.2,737.4,135.2z"/>
<path class="st22" d="M731.4,259.2H435.9c-6.6,0-12-5.4-12-12v-74.5c0-6.6,5.4-12,12-12h295.6c6.6,0,12,5.4,12,12v74.5
	C743.4,253.8,738,259.2,731.4,259.2z"/>
<rect x="439.4" y="193.1" class="st25" width="79" height="3.4"/>
<rect x="439.4" y="201.1" class="st25" width="64.4" height="3.4"/>
<rect x="439.4" y="209.2" class="st25" width="87.4" height="3.4"/>
<path class="st25" d="M454.5,239.2h-11.1c-2.2,0-4-1.8-4-4l0,0c0-2.2,1.8-4,4-4h11.1c2.2,0,4,1.8,4,4l0,0
	C458.5,237.4,456.7,239.2,454.5,239.2z"/>
<path class="st25" d="M486.9,239.2h-11.1c-2.2,0-4-1.8-4-4l0,0c0-2.2,1.8-4,4-4h11.1c2.2,0,4,1.8,4,4l0,0
	C490.9,237.4,489.1,239.2,486.9,239.2z"/>
<g>
	<path class="st22" d="M482.8,332.7h-43.9c-6.6,0-12-5.4-12-12v-43.9c0-6.6,5.4-12,12-12h43.9c6.6,0,12,5.4,12,12v43.9
		C494.8,327.3,489.4,332.7,482.8,332.7z"/>
	<rect x="432.5" y="293.8" class="st25" width="56.8" height="33.7"/>
	<rect x="441.1" y="267.9" class="st25" width="39.5" height="6.4"/>
	<rect x="437.2" y="280.1" class="st25" width="47.3" height="1.6"/>
	<rect x="434.6" y="288" class="st25" width="52.6" height="1.6"/>
	<rect x="444.8" y="284.4" class="st25" width="32.2" height="1.6"/>
</g>
</svg>
